<?xml version="1.0" encoding="UTF-8"?>
<svg width="82px" height="82px" viewBox="0 0 82 82" version="1.1" xmlns="http://www.w3.org/2000/svg" xmlns:xlink="http://www.w3.org/1999/xlink">
    <title>浴室</title>
    <g id="远方驾服" stroke="none" stroke-width="1" fill="none" fill-rule="evenodd">
        <g id="驾校首页-班型" transform="translate(-334.000000, -2558.000000)">
            <g id="编组-18" transform="translate(0.000000, 2256.001606)">
                <g id="编组-2" transform="translate(334.000000, 302.000000)">
                    <circle id="椭圆形备份-6" fill="#FE1433" opacity="0.07" cx="41" cy="41" r="41"></circle>
                    <g id="淋浴喷头_shower-head" transform="translate(21.000000, 21.000000)">
                        <rect id="矩形" fill-opacity="0.01" fill="#FFFFFF" fill-rule="nonzero" x="0" y="0" width="40" height="40"></rect>
                        <path d="M22.5,16.6666667 L22.5,18.3333333 L7.5,18.3333333 L7.5,16.6666667 C7.5,13.90525 10.8578333,11.6666667 15,11.6666667 C19.1421667,11.6666667 22.5,13.90525 22.5,16.6666667 Z" id="路径" stroke="#333333" stroke-width="3.33333333" stroke-linecap="round" stroke-linejoin="round"></path>
                        <path d="M35,36.6666667 L35,10.4166667 C35,6.50465 30.5228333,3.33333333 25,3.33333333 C19.4771667,3.33333333 15,6.50465 15,10.4166667 L15,11.6666667" id="路径" stroke="#333333" stroke-width="3.33333333" stroke-linecap="round" stroke-linejoin="round"></path>
                        <line x1="15" y1="24.1666667" x2="15" y2="23.3333333" id="路径" stroke="#333333" stroke-width="3.33333333" stroke-linecap="round" stroke-linejoin="round"></line>
                        <line x1="8.47575" y1="23.3585833" x2="8.19076667" y2="24.1416667" id="路径" stroke="#333333" stroke-width="3.33333333" stroke-linecap="round" stroke-linejoin="round"></line>
                        <line x1="3.47578333" y1="35.8585833" x2="3.19076667" y2="36.6416667" id="路径" stroke="#333333" stroke-width="3.33333333" stroke-linecap="round" stroke-linejoin="round"></line>
                        <line x1="15" y1="36.6666667" x2="15" y2="35.8333333" id="路径" stroke="#333333" stroke-width="3.33333333" stroke-linecap="round" stroke-linejoin="round"></line>
                        <line x1="15" y1="30.8333333" x2="15" y2="29.1666667" id="路径" stroke="#333333" stroke-width="3.33333333" stroke-linecap="round" stroke-linejoin="round"></line>
                        <line x1="6.11833333" y1="29.2169167" x2="5.5483" y2="30.7830833" id="路径" stroke="#333333" stroke-width="3.33333333" stroke-linecap="round" stroke-linejoin="round"></line>
                    </g>
                </g>
            </g>
        </g>
    </g>
</svg>