<?xml version="1.0" encoding="UTF-8"?>
<svg width="82px" height="82px" viewBox="0 0 82 82" version="1.1" xmlns="http://www.w3.org/2000/svg" xmlns:xlink="http://www.w3.org/1999/xlink">
    <title>车辆</title>
    <g id="远方驾服" stroke="none" stroke-width="1" fill="none" fill-rule="evenodd">
        <g id="驾校首页-班型" transform="translate(-187.000000, -2022.000000)">
            <g id="编组-14" transform="translate(187.000000, 2022.000535)">
                <circle id="椭圆形备份-3" fill="#FE1433" opacity="0.07" cx="41" cy="41" r="41"></circle>
                <g id="汽车_car-2备份" transform="translate(19.000000, 19.000000)">
                    <rect id="矩形" fill-opacity="0.01" fill="#FFFFFF" fill-rule="nonzero" x="0" y="0" width="44" height="44"></rect>
                    <path d="M12.375,29.3333333 C13.6406417,29.3333333 14.6666667,28.3073083 14.6666667,27.0416667 C14.6666667,25.776025 13.6406417,24.75 12.375,24.75 C11.1093583,24.75 10.0833333,25.776025 10.0833333,27.0416667 C10.0833333,28.3073083 11.1093583,29.3333333 12.375,29.3333333 Z" id="路径" fill="#333333"></path>
                    <path d="M31.625,29.3333333 C32.8906417,29.3333333 33.9166667,28.3073083 33.9166667,27.0416667 C33.9166667,25.776025 32.8906417,24.75 31.625,24.75 C30.3593583,24.75 29.3333333,25.776025 29.3333333,27.0416667 C29.3333333,28.3073083 30.3593583,29.3333333 31.625,29.3333333 Z" id="路径" fill="#333333"></path>
                    <path d="M6.41666667,33.9166667 C4.8978875,33.9166667 3.66666667,32.6854917 3.66666667,31.1666667 L3.66666667,22.6505583 C3.66666667,20.5666083 4.844455,18.6615917 6.70871667,17.73035 L7.33381917,17.4180417 L9.45129167,8.33427833 C9.83821667,6.67440583 11.3178083,5.5 13.0221667,5.5 L31.069775,5.5 C32.786875,5.5 34.274075,6.69164833 34.6482583,8.36748 L36.6695083,17.4180417 L37.2931167,17.7298 C39.1563333,18.6615 40.3333333,20.565875 40.3333333,22.6490917 L40.3333333,31.1666667 C40.3333333,32.6854917 39.1021583,33.9166667 37.5833333,33.9166667 L35.7528417,33.9166667 L35.7528417,34.8333333 C35.7528417,36.8583417 34.1098083,38.5 32.0848,38.5 C30.0597,38.5 28.4166667,36.8583417 28.4166667,34.8333333 L28.4166667,33.9166667 L15.5833333,33.9166667 L15.5833333,34.8336083 C15.5833333,36.858525 13.9418583,38.5 11.9169417,38.5 C9.892025,38.5 8.25048583,36.858525 8.25048583,34.8336083 L8.25048583,33.9166667 L6.41666667,33.9166667 Z" id="路径" stroke="#333333" stroke-width="3.7" stroke-linejoin="round"></path>
                    <path d="M12.8333333,20.1666667 L31.1666667,20.1666667 L29.6523333,13.3522583 C29.465975,12.5135083 28.7220083,11.9166667 27.862725,11.9166667 L16.137275,11.9166667 C15.2779917,11.9166667 14.534025,12.5135083 14.3476667,13.3522583 L12.8333333,20.1666667 Z" id="路径" stroke="#333333" stroke-width="3.66666667" stroke-linejoin="round"></path>
                </g>
            </g>
        </g>
    </g>
</svg>