<?xml version="1.0" encoding="UTF-8"?>
<svg width="82px" height="82px" viewBox="0 0 82 82" version="1.1" xmlns="http://www.w3.org/2000/svg" xmlns:xlink="http://www.w3.org/1999/xlink">
    <title>咖啡厅</title>
    <g id="远方驾服" stroke="none" stroke-width="1" fill="none" fill-rule="evenodd">
        <g id="驾校首页-班型" transform="translate(-187.000000, -2558.000000)">
            <g id="编组-18" transform="translate(0.000000, 2256.001606)">
                <g id="编组-16" transform="translate(187.000000, 302.000000)">
                    <circle id="椭圆形备份-5" fill="#FE1433" opacity="0.07" cx="41" cy="41" r="41"></circle>
                    <g id="咖啡杯_cup" transform="translate(20.000000, 19.000000)">
                        <rect id="矩形" fill-opacity="0.01" fill="#FFFFFF" fill-rule="nonzero" x="0" y="0" width="44" height="44"></rect>
                        <path d="M7.33333333,15.5943333 C7.33333333,15.0820083 7.74868417,14.6666667 8.26104583,14.6666667 L30.239,14.6666667 C30.751325,14.6666667 31.1666667,15.0820083 31.1666667,15.5943333 L31.1666667,28.4166667 C31.1666667,34.9980583 25.8313917,40.3333333 19.25,40.3333333 L19.25,40.3333333 C12.6686083,40.3333333 7.33333333,34.9980583 7.33333333,28.4166667 L7.33333333,15.5943333 Z" id="路径" stroke="#333333" stroke-width="3.66666667"></path>
                        <rect id="矩形" stroke="#333333" stroke-width="3.66666667" stroke-linecap="round" stroke-linejoin="round" x="7.33333333" y="21.0833333" width="23.8333333" height="7.33333333"></rect>
                        <line x1="19.25" y1="3.66666667" x2="19.25" y2="9.16666667" id="路径" stroke="#333333" stroke-width="3.66666667" stroke-linecap="round" stroke-linejoin="round"></line>
                        <line x1="11.9166667" y1="5.5" x2="11.9166667" y2="7.33333333" id="路径" stroke="#333333" stroke-width="3.66666667" stroke-linecap="round" stroke-linejoin="round"></line>
                        <line x1="26.5833333" y1="5.5" x2="26.5833333" y2="7.33333333" id="路径" stroke="#333333" stroke-width="3.66666667" stroke-linecap="round" stroke-linejoin="round"></line>
                        <path d="M31.1666667,31.1666667 C34.7105,31.1666667 37.5833333,28.2938333 37.5833333,24.75 C37.5833333,21.2061667 34.7105,18.3333333 31.1666667,18.3333333" id="路径" stroke="#333333" stroke-width="3.66666667" stroke-linecap="round"></path>
                    </g>
                </g>
            </g>
        </g>
    </g>
</svg>