<?xml version="1.0" encoding="UTF-8"?>
<svg width="82px" height="82px" viewBox="0 0 82 82" version="1.1" xmlns="http://www.w3.org/2000/svg" xmlns:xlink="http://www.w3.org/1999/xlink">
    <title>免费WIFI</title>
    <g id="远方驾服" stroke="none" stroke-width="1" fill="none" fill-rule="evenodd">
        <g id="驾校首页-班型" transform="translate(-187.000000, -2382.000000)">
            <g id="编组-18" transform="translate(0.000000, 2256.001606)">
                <g id="编组-10" transform="translate(187.000000, 126.000000)">
                    <circle id="椭圆形备份-5" fill="#FE1433" opacity="0.07" cx="41" cy="41" r="41"></circle>
                    <g id="无线网络_wifi" transform="translate(17.000000, 17.000000)">
                        <rect id="矩形" fill-opacity="0.01" fill="#FFFFFF" fill-rule="nonzero" x="0" y="0" width="48" height="48"></rect>
                        <path d="M4.00001,18.9653 C4.58881,18.4073 5.19523,17.8786 5.81741,17.3792 C17.0371,8.37423 33.3821,8.90292 44,18.9653" id="路径" stroke="#333333" stroke-width="4" stroke-linecap="round" stroke-linejoin="round"></path>
                        <path d="M38,25.799 C30.268,18.067 17.732,18.067 10,25.799" id="路径" stroke="#333333" stroke-width="4" stroke-linecap="round" stroke-linejoin="round"></path>
                        <path d="M32,32.3137 C27.5817,27.8954 20.4183,27.8954 16,32.3137" id="路径" stroke="#333333" stroke-width="4" stroke-linecap="round" stroke-linejoin="round"></path>
                        <path d="M24,40 C25.3807,40 26.5,38.8807 26.5,37.5 C26.5,36.1193 25.3807,35 24,35 C22.6193,35 21.5,36.1193 21.5,37.5 C21.5,38.8807 22.6193,40 24,40 Z" id="路径" fill="#333333"></path>
                    </g>
                </g>
            </g>
        </g>
    </g>
</svg>